# xmcd
#
# Track frame offsets:
#	182
#	15945
#	32085
#	46610
#	59045
#	73180
#	89410
#	105695
#	120375
#	138105
#	154302
#	174567
#	192850
#	209895
#	220895
#
# Disc length: 3144 seconds
#
# Revision: 1
# Processed by: cddbd v1.4PL0 Copyright (c) Steve Scherf et al.
# Submitted via: audiograbber 1.81.03
#
DISCID=d60c460f
DTITLE=Mark Hummel Ft Junior Watson - Hard Lovin 1990's
DYEAR=1992
DGENRE=Blues
TTITLE0=Bombshell Baby
TTITLE1=Down Now
TTITLE2=In Your Town
TTITLE3=Hard To Love
TTITLE4=Rotten Kid
TTITLE5=I Don't Hurt Anymore
TTITLE6=Rock Mr Blues
TTITLE7=Radiates That Charm
TTITLE8=Up And Jumpin Thang
TTITLE9=Gotta Make A Change
TTITLE10=Gettalong Song
TTITLE11=Gotta Find My Baby
TTITLE12=Joe Meets Pee Wee
TTITLE13=Everybody's Carried Away
TTITLE14=Good Rockin' Man
EXTD=
EXTT0=
EXTT1=
EXTT2=
EXTT3=
EXTT4=
EXTT5=
EXTT6=
EXTT7=
EXTT8=
EXTT9=
EXTT10=
EXTT11=
EXTT12=
EXTT13=
EXTT14=
PLAYORDER=
